<svg version="1" xmlns="http://www.w3.org/2000/svg" width="346.667" height="346.667" viewBox="0 0 260.000000 260.000000"><path d="M0 130v130h260V0H0v130zm162.5-77.2c11.9 3.2 30.4 13.8 28.8 16.5-.4.7-4.7 6.7-9.6 13.5l-8.9 12.3-3.2-2.1c-14.8-10-31.7-11.4-41.8-3.6-8.8 6.6-12.6 16.8-13.5 36.1-1.2 25.4 3.8 39.7 16 45.9 4.8 2.5 6.9 2.9 13 2.9 9.2 0 13.7-1.3 21.7-6.2 3.6-2.1 6.8-3.7 7.2-3.5.3.2 5 6.5 10.3 14 11 15.3 10.9 13.3.4 19.9-26.1 16.2-63.9 15-87.4-2.7-17.3-13.1-26.7-32.7-28.2-58.8-1.8-32.1 10.3-60.2 32.2-74.9 13.5-9 26-12.3 44.5-11.6 6.9.2 14.3 1.1 18.5 2.3z"/></svg>