<svg version="1" xmlns="http://www.w3.org/2000/svg" width="346.667" height="346.667" viewBox="0 0 260.000000 260.000000"><path d="M0 130v130h260V0H0v130zm142.4-85.1c5.8 2.5 11.4 8.3 14.2 14.7 2 4.6 3 5.6 8.6 8.5 8.7 4.6 22.3 18.3 26.8 27 3 5.9 3.8 6.7 8.1 8.2 11 3.9 18.5 16.2 17.6 28.8-.7 11.5-6.5 19.6-17.4 24.6-4.6 2.1-5.7 3.2-8.5 8.6-4.4 8.3-18.3 22.2-26.5 26.5-5.7 3-6.5 3.9-9.3 9.7-3.2 6.7-6.6 10.2-13.4 13.8-5.9 3.2-19.3 3.1-25.3-.1s-11.2-8.7-13.9-14.8c-2-4.6-3-5.6-8.6-8.5-8.4-4.4-22.2-18.3-26.6-26.6-2.9-5.4-3.9-6.5-8.6-8.6-18.8-8.6-23.4-32.7-9-47.2 2.7-2.6 6.5-5.2 9.3-6.2 4.3-1.5 5.1-2.3 8.1-8.2 4.5-8.7 18.1-22.4 26.8-27 5.3-2.8 6.7-4 8.2-7.7 3.9-9 10.1-14.6 18.8-17.1 5.9-1.6 15-.9 20.6 1.6z"/><path d="M124 59.7c-4.5 2.3-7.3 7.5-6.6 12.7.6 5.3 3.4 8.8 8.4 10.6 3.7 1.3 4.7 1.3 8.4 0 7.5-2.6 10.6-9.9 7.4-17.5-2.7-6.4-11-9.2-17.6-5.8z"/><path d="M99.5 84.2c-4.9 3.5-11.5 10-14.6 14.4l-2.8 4.1 4.9 3.1c5.3 3.3 10.3 10.1 12 16.2 3.4 12.1-1.8 25.8-12 32.2l-4.9 3.1 2.1 3.1c3.2 4.7 9.8 11.5 14.4 14.6l4.1 2.9 3.4-5.2c11-16.6 36.8-16.6 47.8 0l3.4 5.2 4.1-2.9c4.6-3.1 11.2-9.9 14.4-14.6l2.1-3.1-4.9-3.1c-10.2-6.4-15.4-20.1-12-32.2 1.7-6.1 6.7-12.9 12-16.2l4.9-3.1-2.8-4.1c-3.2-4.6-9.9-11.2-14.8-14.4l-3.1-2.2-2.7 4.5c-7.5 12.8-25.3 17.3-38.7 9.8-4.6-2.6-8.7-6.8-12.3-12.6-.9-1.5-1.3-1.4-4 .5z"/><path d="M65 118.7c-4.5 2.3-7.3 7.5-6.6 12.7.6 5.3 3.4 8.8 8.4 10.6 3.7 1.3 4.7 1.3 8.4 0 7.5-2.6 10.6-9.9 7.4-17.5-2.7-6.4-11-9.2-17.6-5.8zM183 118.8c-4.5 2.2-7.3 7.4-6.6 12.6.6 5.3 3.4 8.8 8.4 10.6 3.7 1.3 4.7 1.3 8.4 0 10.9-3.8 11.7-19.2 1.3-23.6-4.5-1.8-7.2-1.8-11.5.4zM124 177.7c-4.5 2.3-7.3 7.5-6.6 12.7.6 5.3 3.4 8.8 8.4 10.6 3.7 1.3 4.7 1.3 8.4 0 7.5-2.6 10.6-9.9 7.4-17.5-2.7-6.4-11-9.2-17.6-5.8z"/></svg>