<?xml version="1.0" encoding="UTF-8"?>
<svg width="52px" height="60px" viewBox="0 0 52 60" version="1.1" xmlns="http://www.w3.org/2000/svg" xmlns:xlink="http://www.w3.org/1999/xlink">
    <!-- Generator: Sketch 43.2 (39069) - http://www.bohemiancoding.com/sketch -->
    <title>GEF logo</title>
    <desc>Created with Sketch.</desc>
    <defs></defs>
    <g id="Symbols" stroke="none" stroke-width="1" fill="none" fill-rule="evenodd">
        <g id="Footer" transform="translate(-143.000000, -91.000000)" fill="#00653A">
            <g id="Group-2">
                <g id="GEF-logo" transform="translate(143.000000, 91.000000)">
                    <path d="M27.8081081,19.0718919 L22.3389189,20.1264865 C19.3091892,20.7086486 18.1048649,20.8886486 12.7951351,21.9410811 C11.3827027,22.2972973 10.0005405,22.6951351 8.73189189,23.1237838 C8.70540541,23.1324324 8.68108108,23.1421622 8.65459459,23.1508108 C9.36864865,25.4086486 10.5216216,27.4708108 12.0221622,29.2302703 C11.7805405,29.2227027 11.5108108,29.2118919 11.2027027,29.1983784 C7.69621622,28.9994595 4.46972973,28.4751351 3.06756757,27.5643243 C2.92054054,27.4718919 2.80162162,27.3854054 2.7027027,27.3037838 C2.84,27.8886486 3.79567568,28.7578378 5.53675676,29.4518919 C7.40378378,30.2118919 10.1286486,30.8140541 13.5378378,30.9081081 C13.5545946,30.9037838 13.7994595,30.9135135 13.7994595,30.9135135 C13.8124324,30.9254054 14.02,31.1010811 14.02,31.1010811 C14.4978378,31.5313514 15.1102703,32.0762162 15.1102703,32.0762162 L15.2064865,32.147027 C18.0659459,34.1848649 21.5632432,35.3864865 25.3427027,35.3864865 C35.0156757,35.3864865 42.8556757,27.5464865 42.8556757,17.8772973 C42.8556757,17.1297297 42.7945946,16.3983784 42.7027027,15.6756757 C40.8783784,16.2648649 38.9243243,16.7762162 36.9859459,17.2459459 C31.3243243,18.3686486 30.3864865,18.6810811 27.8081081,19.0718919" id="Fill-1"></path>
                    <path d="M47.3681081,7.29675676 C48.1751351,7.73459459 48.4124324,8.11837838 48.4443243,8.37297297 C48.4535135,8.41027027 48.4545946,8.4427027 48.4545946,8.47297297 C48.4545946,8.50864865 48.4502703,8.55459459 48.44,8.60324324 C48.4432432,8.59567568 48.4443243,8.58918919 48.447027,8.58162162 C48.4113514,8.7627027 48.287027,9.02054054 47.9297297,9.37837838 C47.4962162,9.81189189 46.7562162,10.3037838 45.8172973,10.7762162 C44.8481081,11.2648649 43.6648649,11.732973 42.3713514,12.1702703 C41.5848649,9.71081081 40.2697297,7.48864865 38.5583784,5.63621622 C42.1140541,5.8372973 45.6675676,6.34540541 47.3681081,7.29675676 Z M0.11027027,26.5145946 C0.11027027,26.5005405 0.109189189,26.4756757 0.112432432,26.4605405 C0.115135135,26.2243243 0.18,26.0205405 0.182162162,26.0081081 C1.1,23.2594595 4.90702703,21.7583784 10.6,20.4475676 C16.3032432,19.1464865 23.9372973,18.08 32.5659459,16.4140541 C40.6102703,14.8659459 46.3664865,13.0324324 49.1702703,11.2654054 C50.2735135,10.5664865 50.752973,9.79189189 50.9632432,9.20486486 C51.02,8.96648649 51.0540541,8.71891892 51.0540541,8.46054054 C51.0540541,8.28432432 51.04,8.10918919 51.012973,7.93783784 C50.7740541,6.5372973 49.7383784,5.60486486 48.5972973,4.99945946 C47.4297297,4.37783784 46.0145946,3.97567568 44.4437838,3.67405405 C41.6556757,3.14702703 38.3372973,2.96702703 35.3951351,2.93459459 C32.6167568,1.08162162 29.2805405,0 25.6902703,0 C16.0221622,0 8.18216216,7.83891892 8.18216216,17.5108108 C8.18216216,18.2335135 8.23135135,18.9454054 8.31621622,19.6459459 C8.26702703,19.6616216 8.21513514,19.6762162 8.16594595,19.6924324 C5.33351351,20.6189189 2.84864865,21.7589189 1.30324324,23.2805405 C0.560540541,24.0340541 0,25.0113514 0,26.1486486 C0,26.2832432 0.00648648649,26.4059459 0.0210810811,26.5416216 C0.052972973,26.8264865 0.124864865,27.0924324 0.221081081,27.3448649 C0.183243243,27.1940541 0.152432432,27.0389189 0.134594595,26.8778378 C0.121081081,26.7562162 0.11027027,26.64 0.11027027,26.5145946 L0.11027027,26.5145946 Z" id="Fill-2"></path>
                    <path d="M17.7335135,42.0091892 C17.0297297,41.8464865 16.3232432,41.7643243 15.5918919,41.7643243 C13.2859459,41.7643243 11.7140541,43.1745946 11.7140541,46.8097297 C11.7140541,49.5216216 12.5551351,51.0135135 14.3724324,51.0135135 C16.5410811,51.0135135 17.7335135,48.4902703 17.7335135,46.132973 L17.7335135,42.0091892 Z M13.3935135,59.9891892 C11.9016216,59.9891892 10.52,59.7983784 9.40756757,59.4740541 L9.62540541,56.7081081 C10.7918919,57.1697297 12.3081081,57.4935135 13.6118919,57.4935135 C16.2956757,57.4935135 17.7605405,56.5178378 17.7605405,53.7243243 L17.7605405,52.8291892 C17.7605405,52.0427027 17.7891892,51.3648649 17.9248649,50.66 L17.8697297,50.6324324 C17.1372973,52.3405405 15.5637838,53.3972973 13.6659459,53.3972973 C10.4659459,53.3972973 8.64864865,51.2286486 8.64864865,47.0816216 C8.64864865,42.4437838 11.3059459,39.4594595 15.8891892,39.4594595 C17.6275676,39.4594595 19.1983784,39.5956757 20.6075676,39.8405405 L20.6075676,53.9145946 C20.6075676,56.7345946 19.3059459,59.9891892 13.3935135,59.9891892 L13.3935135,59.9891892 Z" id="Fill-3"></path>
                    <path d="M29.2918919,41.6027027 C27.6659459,41.6027027 26.5248649,42.7967568 26.2832432,44.6124324 L32.0027027,44.6124324 C32.0583784,42.7681081 31.0005405,41.6027027 29.2918919,41.6027027 Z M34.8237838,46.647027 L26.2264865,46.647027 C26.1459459,49.7659459 27.5281081,51.1751351 30.2140541,51.1751351 C31.5962162,51.1751351 33.0356757,50.8508108 34.1481081,50.3086486 L34.4183784,52.612973 C33.0621622,53.1821622 31.4097297,53.4810811 29.7502703,53.4810811 C25.5508108,53.4810811 23.2432432,51.3113514 23.2432432,46.5659459 C23.2432432,42.4978378 25.467027,39.4594595 29.4010811,39.4594595 C33.2524324,39.4594595 34.907027,42.0897297 34.907027,45.2891892 C34.907027,45.6702703 34.8783784,46.1308108 34.8237838,46.647027 L34.8237838,46.647027 Z" id="Fill-4"></path>
                    <path d="M46.0308108,35.6021622 C45.4340541,35.4140541 44.7848649,35.3313514 44.1881081,35.3313514 C42.4518919,35.3313514 41.6648649,36.2805405 41.6648649,38.3972973 L41.6648649,39.4816216 L45.1659459,39.4816216 L45.1659459,41.7324324 L41.6648649,41.7324324 L41.6648649,52.9605405 L38.7924324,52.9605405 L38.7924324,41.7324324 L36.2162162,41.7324324 L36.2162162,39.4816216 L38.7924324,39.4816216 L38.7924324,38.4513514 C38.7924324,34.7627027 40.5535135,32.972973 44.0508108,32.972973 C44.8113514,32.972973 45.5448649,33.0556757 46.2481081,33.2167568 L46.0308108,35.6021622" id="Fill-5"></path>
                </g>
            </g>
        </g>
    </g>
</svg>