<?xml version="1.0" encoding="UTF-8"?>
<svg width="105px" height="60px" viewBox="0 0 105 60" version="1.1" xmlns="http://www.w3.org/2000/svg" xmlns:xlink="http://www.w3.org/1999/xlink">
    <!-- Generator: Sketch 43.2 (39069) - http://www.bohemiancoding.com/sketch -->
    <title>Connect logo</title>
    <desc>Created with Sketch.</desc>
    <defs></defs>
    <g id="Symbols" stroke="none" stroke-width="1" fill="none" fill-rule="evenodd">
        <g id="Connect-logo">
            <rect id="Rectangle-6" fill="#1696A1" x="0" y="0" width="105" height="60"></rect>
            <g id="Group-2" transform="translate(16.000000, 22.000000)" fill="#FFFFFF">
                <path d="M7.82,3.36 C8.4066696,3.5733344 8.9599974,3.8999978 9.48,4.34 L8.1,6.24 C7.4599968,5.7199974 6.7933368,5.46 6.1,5.46 C5.3933298,5.46 4.8600018,5.7199974 4.5,6.24 C4.1399982,6.7600026 3.96,7.5999942 3.96,8.76 C3.96,9.8800056 4.1399982,10.673331 4.5,11.14 C4.8600018,11.606669 5.3799966,11.84 6.06,11.84 C6.4333352,11.84 6.7666652,11.7800006 7.06,11.66 C7.3533348,11.5399994 7.6799982,11.3400014 8.04,11.06 L9.48,13.08 C8.4266614,13.9200042 7.23334,14.34 5.9,14.34 C4.8199946,14.34 3.8866706,14.1100023 3.1,13.65 C2.3133294,13.1899977 1.7066688,12.5433375 1.28,11.71 C0.8533312,10.8766625 0.64,9.9000056 0.64,8.78 C0.64,7.6599944 0.8533312,6.666671 1.28,5.8 C1.7066688,4.933329 2.3133294,4.2566691 3.1,3.77 C3.8866706,3.2833309 4.7999948,3.04 5.84,3.04 C6.573337,3.04 7.2333304,3.1466656 7.82,3.36 Z M19.24,4.53 C20.1600046,5.5233383 20.62,6.9133244 20.62,8.7 C20.62,9.833339 20.4100021,10.8233291 19.99,11.67 C19.5699979,12.5166709 18.9700039,13.173331 18.19,13.64 C17.4099961,14.106669 16.486672,14.34 15.42,14.34 C13.8066586,14.34 12.5366713,13.8433383 11.61,12.85 C10.6833287,11.8566617 10.22,10.4666756 10.22,8.68 C10.22,7.546661 10.4299979,6.5566709 10.85,5.71 C11.2700021,4.8633291 11.8699961,4.206669 12.65,3.74 C13.4300039,3.273331 14.353328,3.04 15.42,3.04 C17.0466748,3.04 18.3199954,3.5366617 19.24,4.53 Z M13.98,6.17 C13.6599984,6.7100027 13.5,7.546661 13.5,8.68 C13.5,9.8400058 13.6566651,10.686664 13.97,11.22 C14.2833349,11.753336 14.7666634,12.02 15.42,12.02 C16.0600032,12.02 16.5399984,11.7500027 16.86,11.21 C17.1800016,10.6699973 17.34,9.833339 17.34,8.7 C17.34,7.5399942 17.1833349,6.693336 16.87,6.16 C16.5566651,5.626664 16.0733366,5.36 15.42,5.36 C14.7799968,5.36 14.3000016,5.6299973 13.98,6.17 Z M31.08,3.88 C31.6000026,4.4400028 31.86,5.2266616 31.86,6.24 L31.86,14 L28.7,14 L28.7,6.78 C28.7,6.246664 28.6166675,5.8766677 28.45,5.67 C28.2833325,5.4633323 28.033335,5.36 27.7,5.36 C27.0599968,5.36 26.4466696,5.8199954 25.86,6.74 L25.86,14 L22.7,14 L22.7,3.38 L25.46,3.38 L25.68,4.64 C26.146669,4.106664 26.6433307,3.706668 27.17,3.44 C27.6966693,3.173332 28.2799968,3.04 28.92,3.04 C29.8400046,3.04 30.5599974,3.3199972 31.08,3.88 Z M42.82,3.88 C43.3400026,4.4400028 43.6,5.2266616 43.6,6.24 L43.6,14 L40.44,14 L40.44,6.78 C40.44,6.246664 40.3566675,5.8766677 40.19,5.67 C40.0233325,5.4633323 39.773335,5.36 39.44,5.36 C38.7999968,5.36 38.1866696,5.8199954 37.6,6.74 L37.6,14 L34.44,14 L34.44,3.38 L37.2,3.38 L37.42,4.64 C37.886669,4.106664 38.3833307,3.706668 38.91,3.44 C39.4366693,3.173332 40.0199968,3.04 40.66,3.04 C41.5800046,3.04 42.2999974,3.3199972 42.82,3.88 Z M55.38,9.62 L48.82,9.62 C48.9133338,10.5133378 49.159998,11.1399982 49.56,11.5 C49.960002,11.8600018 50.5133298,12.04 51.22,12.04 C51.6466688,12.04 52.059998,11.9633341 52.46,11.81 C52.860002,11.6566659 53.293331,11.4200016 53.76,11.1 L55.06,12.86 C53.8199938,13.8466716 52.4400076,14.34 50.92,14.34 C49.1999914,14.34 47.8800046,13.8333384 46.96,12.82 C46.0399954,11.8066616 45.58,10.4466752 45.58,8.74 C45.58,7.6599946 45.7733314,6.6900043 46.16,5.83 C46.5466686,4.9699957 47.1133296,4.2900025 47.86,3.79 C48.6066704,3.2899975 49.4999948,3.04 50.54,3.04 C52.073341,3.04 53.273329,3.5199952 54.14,4.48 C55.006671,5.4400048 55.44,6.7733248 55.44,8.48 C55.44,8.9200022 55.4200002,9.2999984 55.38,9.62 Z M52.34,7.58 C52.3133332,5.9533252 51.7400056,5.14 50.62,5.14 C50.0733306,5.14 49.6533348,5.3366647 49.36,5.73 C49.0666652,6.1233353 48.8800004,6.786662 48.8,7.72 L52.34,7.72 L52.34,7.58 Z M64.04,3.36 C64.6266696,3.5733344 65.1799974,3.8999978 65.7,4.34 L64.32,6.24 C63.6799968,5.7199974 63.0133368,5.46 62.32,5.46 C61.6133298,5.46 61.0800018,5.7199974 60.72,6.24 C60.3599982,6.7600026 60.18,7.5999942 60.18,8.76 C60.18,9.8800056 60.3599982,10.673331 60.72,11.14 C61.0800018,11.606669 61.5999966,11.84 62.28,11.84 C62.6533352,11.84 62.9866652,11.7800006 63.28,11.66 C63.5733348,11.5399994 63.8999982,11.3400014 64.26,11.06 L65.7,13.08 C64.6466614,13.9200042 63.45334,14.34 62.12,14.34 C61.0399946,14.34 60.1066706,14.1100023 59.32,13.65 C58.5333294,13.1899977 57.9266688,12.5433375 57.5,11.71 C57.0733312,10.8766625 56.86,9.9000056 56.86,8.78 C56.86,7.6599944 57.0733312,6.666671 57.5,5.8 C57.9266688,4.933329 58.5333294,4.2566691 59.32,3.77 C60.1066706,3.2833309 61.0199948,3.04 62.06,3.04 C62.793337,3.04 63.4533304,3.1466656 64.04,3.36 Z M72.55,14.12 C72.0366641,14.2666674 71.5266692,14.34 71.02,14.34 C68.6999884,14.3266666 67.54,13.0466794 67.54,10.5 L67.54,5.58 L66.04,5.58 L66.04,3.38 L67.54,3.38 L67.54,1.08 L70.7,0.72 L70.7,3.38 L73.14,3.38 L72.8,5.58 L70.7,5.58 L70.7,10.46 C70.7,10.9533358 70.7799992,11.3066656 70.94,11.52 C71.1000008,11.7333344 71.3533316,11.84 71.7,11.84 C72.0733352,11.84 72.4533314,11.7200012 72.84,11.48 L73.9,13.5 C73.5133314,13.766668 73.0633359,13.9733326 72.55,14.12 Z" id="connect"></path>
            </g>
        </g>
    </g>
</svg>