<?xml version="1.0" encoding="UTF-8"?>
<svg width="63px" height="62px" viewBox="0 0 63 62" version="1.1" xmlns="http://www.w3.org/2000/svg" xmlns:xlink="http://www.w3.org/1999/xlink">
    <!-- Generator: Sketch 43.2 (39069) - http://www.bohemiancoding.com/sketch -->
    <title>Group</title>
    <desc>Created with Sketch.</desc>
    <defs>
        <filter x="-15.6%" y="-13.3%" width="128.9%" height="126.7%" filterUnits="objectBoundingBox" id="filter-1">
            <feOffset dx="0" dy="0" in="SourceAlpha" result="shadowOffsetOuter1"></feOffset>
            <feGaussianBlur stdDeviation="2" in="shadowOffsetOuter1" result="shadowBlurOuter1"></feGaussianBlur>
            <feColorMatrix values="0 0 0 0 0   0 0 0 0 0   0 0 0 0 0  0 0 0 0.1 0" type="matrix" in="shadowBlurOuter1" result="shadowMatrixOuter1"></feColorMatrix>
            <feMerge>
                <feMergeNode in="shadowMatrixOuter1"></feMergeNode>
                <feMergeNode in="SourceGraphic"></feMergeNode>
            </feMerge>
        </filter>
    </defs>
    <g id="Symbols" stroke="none" stroke-width="1" fill="none" fill-rule="evenodd">
        <g id="Footer" transform="translate(-1239.000000, -242.000000)">
            <g id="Group-2">
                <g id="Group" filter="url(#filter-1)" transform="translate(1270.500000, 272.500000) rotate(-45.000000) translate(-1270.500000, -272.500000) translate(1248.000000, 250.000000)">
                    <circle id="Oval" fill="#FCC445" cx="22.0757359" cy="22.9066017" r="16.5"></circle>
                    <path d="M22.0757359,44.5242641 C10.1463853,44.5242641 0.475735931,34.8536147 0.475735931,22.9242641 C0.475735931,10.9949135 10.1463853,1.32426407 22.0757359,1.32426407 C34.0050865,1.32426407 43.6757359,10.9949135 43.6757359,22.9242641 C43.6757359,34.8536147 34.0050865,44.5242641 22.0757359,44.5242641 Z M22.0580889,39.4242488 C31.1707872,39.4242488 38.5580889,32.0369471 38.5580889,22.9242488 C38.5580889,13.8115504 31.1707872,6.42424878 22.0580889,6.42424878 C12.9453905,6.42424878 5.55808887,13.8115504 5.55808887,22.9242488 C5.55808887,32.0369471 12.9453905,39.4242488 22.0580889,39.4242488 Z" id="Oval" fill="#FFFFFF" fill-rule="nonzero"></path>
                    <g id="Group-4" transform="translate(0.772078, 25.883766)">
                        <path d="M9,18.6 C4.02943725,18.6 -1.42108547e-13,14.5705627 -1.42108547e-13,9.6 C-1.42108547e-13,4.62943725 4.02943725,0.6 9,0.6 C13.9705627,0.6 18,4.62943725 18,9.6 C18,14.5705627 13.9705627,18.6 9,18.6 Z M9.04285714,13.4394805 C11.1967677,13.4394805 12.9428571,11.693391 12.9428571,9.53948051 C12.9428571,7.38556998 11.1967677,5.63948051 9.04285714,5.63948051 C6.88894662,5.63948051 5.14285714,7.38556998 5.14285714,9.53948051 C5.14285714,11.693391 6.88894662,13.4394805 9.04285714,13.4394805 Z" id="Oval" fill="#FFFFFF" fill-rule="nonzero"></path>
                        <circle id="Oval" fill="#1696A1" cx="9" cy="9.58233765" r="3.9"></circle>
                    </g>
                    <g id="Group-4" transform="translate(0.772078, 0.427922)">
                        <path d="M9,18.6 C4.02943725,18.6 -8.15347789e-13,14.5705627 -8.15347789e-13,9.6 C-8.15347789e-13,4.62943725 4.02943725,0.6 9,0.6 C13.9705627,0.6 18,4.62943725 18,9.6 C18,14.5705627 13.9705627,18.6 9,18.6 Z M9.04285714,13.4394805 C11.1967677,13.4394805 12.9428571,11.693391 12.9428571,9.53948051 C12.9428571,7.38556998 11.1967677,5.63948051 9.04285714,5.63948051 C6.88894662,5.63948051 5.14285714,7.38556998 5.14285714,9.53948051 C5.14285714,11.693391 6.88894662,13.4394805 9.04285714,13.4394805 Z" id="Oval" fill="#FFFFFF" fill-rule="nonzero"></path>
                        <circle id="Oval" fill="#1696A1" cx="9" cy="9.58233765" r="3.9"></circle>
                    </g>
                    <g id="Group-4" transform="translate(25.803658, 0.852186)">
                        <path d="M9,18.6 C4.02943725,18.6 8.8817842e-14,14.5705627 8.8817842e-14,9.6 C8.8817842e-14,4.62943725 4.02943725,0.6 9,0.6 C13.9705627,0.6 18,4.62943725 18,9.6 C18,14.5705627 13.9705627,18.6 9,18.6 Z M9.04285714,13.4394805 C11.1967677,13.4394805 12.9428571,11.693391 12.9428571,9.53948051 C12.9428571,7.38556998 11.1967677,5.63948051 9.04285714,5.63948051 C6.88894662,5.63948051 5.14285714,7.38556998 5.14285714,9.53948051 C5.14285714,11.693391 6.88894662,13.4394805 9.04285714,13.4394805 Z" id="Oval" fill="#FFFFFF" fill-rule="nonzero"></path>
                        <circle id="Oval" fill="#1696A1" cx="9" cy="9.58233765" r="3.9"></circle>
                    </g>
                    <g id="Group-4" transform="translate(26.227922, 25.883766)">
                        <path d="M9,18.6 C4.02943725,18.6 -4.58300065e-13,14.5705627 -4.58300065e-13,9.6 C-4.58300065e-13,4.62943725 4.02943725,0.6 9,0.6 C13.9705627,0.6 18,4.62943725 18,9.6 C18,14.5705627 13.9705627,18.6 9,18.6 Z M9.04285714,13.4394805 C11.1967677,13.4394805 12.9428571,11.693391 12.9428571,9.53948051 C12.9428571,7.38556998 11.1967677,5.63948051 9.04285714,5.63948051 C6.88894662,5.63948051 5.14285714,7.38556998 5.14285714,9.53948051 C5.14285714,11.693391 6.88894662,13.4394805 9.04285714,13.4394805 Z" id="Oval" fill="#FFFFFF" fill-rule="nonzero"></path>
                        <circle id="Oval" fill="#1696A1" cx="9" cy="9.58233765" r="3.9"></circle>
                    </g>
                </g>
            </g>
        </g>
    </g>
</svg>