<?xml version="1.0" encoding="UTF-8"?>
<svg width="90px" height="60px" viewBox="0 0 90 60" version="1.1" xmlns="http://www.w3.org/2000/svg" xmlns:xlink="http://www.w3.org/1999/xlink">
    <!-- Generator: Sketch 43.2 (39069) - http://www.bohemiancoding.com/sketch -->
    <title>uganda</title>
    <desc>Created with Sketch.</desc>
    <defs></defs>
    <g id="Graphic-design" stroke="none" stroke-width="1" fill="none" fill-rule="evenodd">
        <g id="Home" transform="translate(-1087.000000, -825.000000)">
            <g id="uganda" transform="translate(1087.000000, 825.000000)">
                <polygon id="Fill-1" fill="#FFDE30" points="0 50 89.5833333 50 89.5833333 40 0 40"></polygon>
                <polygon id="Fill-2" fill="#FFDE30" points="0 19.5833333 89.5833333 19.5833333 89.5833333 9.58333333 0 9.58333333"></polygon>
                <polygon id="Fill-3" fill="#000000" points="0 10 89.5833333 10 89.5833333 0 0 0"></polygon>
                <polygon id="Fill-4" fill="#000000" points="0 40 89.5833333 40 89.5833333 29.5833333 0 29.5833333"></polygon>
                <polygon id="Fill-5" fill="#E05634" points="0 29.5833333 89.5833333 29.5833333 89.5833333 19.5833333 0 19.5833333"></polygon>
                <polygon id="Fill-6" fill="#E05634" points="0 60 89.5833333 60 89.5833333 50 0 50"></polygon>
                <path d="M44.5842978,39.1154167 C49.7096258,39.1154167 53.8648823,34.9408333 53.8648823,29.7916667 C53.8648823,24.6425 49.7096258,20.4679167 44.5842978,20.4679167 C39.4589699,20.4679167 35.3037133,24.6425 35.3037133,29.7916667 C35.3037133,34.9408333 39.4589699,39.1154167 44.5842978,39.1154167" id="Fill-7" fill="#FFFFFF"></path>
                <path d="M43.0149306,22.80875 L42.3812114,21.5825 C43.5225694,20.78625 45.7891107,21.1683333 46.2009452,23.1433333 L45.1230421,23.3820833 L43.0149306,22.80875" id="Fill-8" fill="#E05634"></path>
                <path d="M44.6548032,23.2545833 L43.496441,22.9395833 L43.5980517,21.1966667 C44.2811246,21.1654167 45.0131366,21.3879167 45.537365,21.9004167 L44.6548032,23.2545833" id="Fill-9" fill="#FFDE30"></path>
                <path d="M44.3781732,31.75875 C44.8696373,33.3670833 44.394348,33.7970833 44.6319927,34.7683333 C44.8124035,35.5058333 44.7584877,36.6479167 44.7427276,37.2208333 C43.8709491,37.1095833 42.9199556,37.2370833 42.4919464,37.635 C42.9357157,37.5395833 43.5540895,37.57125 43.950164,37.6508333 C43.6175444,37.7304167 43.25299,38.1445833 43.25299,38.6383333 C43.8709491,37.9854167 45.2341917,37.39625 46.7085841,37.635 C46.5974344,37.38 45.8840856,37.1095833 45.2341917,37.205 C45.1864969,36.7908333 44.9633681,35.55625 45.091522,34.9595833 C45.2661265,34.1475 45.0280671,32.92125 45.1864969,32.49125 C45.3453414,32.06125 45.5829861,31.7904167 45.5987461,31.3604167" id="Fill-10" fill="#000000"></path>
                <path d="M48.0083719,29.48125 C50.4242187,30.2904167 50.0053337,31.9020833 49.3716146,32.1566667 C47.8437211,32.7704167 45.5108218,32.3908333 43.5383295,31.5833333 C42.682311,31.2333333 41.572473,30.2141667 41.8262924,29.3220833 C42.0796971,28.4304167 43.8867091,27.6341667 44.965027,28.1754167 C46.0425154,28.7170833 47.5326678,29.3220833 48.0083719,29.48125" id="Fill-11" fill="#000000"></path>
                <path d="M43.9344039,29.9275 C43.5225694,30.4845833 43.6490644,31.9020833 44.394348,32.2841667 C45.0384356,32.6145833 45.3768615,32.8895833 45.662201,33.3670833 C45.9475405,33.8445833 46.0425154,34.165 45.3611015,34.0995833 C43.6967593,33.9404167 41.7947724,33.7704167 41.2394387,34.3066667 C40.8276042,34.705 40.8276042,35.2145833 40.9545139,35.7720833 C41.1763985,35.485 41.017554,34.94375 41.3348283,34.7525 C41.2394387,34.9754167 41.2713735,35.4375 41.4932581,35.7079167 C41.4932581,35.4054167 41.556713,34.6729167 41.7628376,34.5775 C41.9689622,34.7208333 41.7864776,35.15875 42.0162423,35.4216667 C42.1667921,35.1745833 42.024537,34.92 42.3098765,34.6491667 C42.5703318,34.4016667 42.9676505,34.25875 43.7917342,34.3229167 C44.6162326,34.38625 45.1864969,34.4341667 45.5672261,34.4179167 C45.9475405,34.4020833 46.0902103,34.33875 46.2805748,34.4179167 C46.4705247,34.4979167 46.6451292,34.4179167 46.7085841,34.2908333 C46.7716242,34.1633333 46.898534,33.9404167 46.6608893,33.7016667 C46.4232446,33.4625 45.9570795,32.73 46.2805748,32.1725 C46.5024595,31.7904167 46.4074846,31.2333333 46.24864,30.9941667" id="Fill-12" fill="#000000"></path>
                <path d="M41.6359279,24.3533333 C41.7151427,24.5129167 42.151032,24.44125 42.9593557,24.2979167 C42.9755305,24.44125 43.3487944,24.6275 43.1895351,24.83125 C42.4919464,25.7229167 41.572473,26.7070833 41.2871335,28.1116667 C41.1287037,28.8920833 41.3663484,29.9433333 42.0796971,30.5804167 C42.0639371,30.34125 42.0796971,30.08625 42.0481771,29.8954167 C42.127392,29.975 42.2223669,30.08625 42.3335166,30.16625 C42.3492766,30.0704167 42.4127315,29.7520833 42.4127315,29.6725 C42.5396412,29.73625 42.698071,29.78375 42.8407407,29.8475 C42.8407407,29.7204167 42.7772859,29.4179167 42.7453511,29.3383333 C42.8565008,29.4020833 43.0626254,29.4654167 43.1260802,29.5291667 C43.0783854,29.4179167 42.9357157,29.0516667 42.8722608,28.94 C42.9357157,29.0195833 43.1418403,29.13125 43.1895351,29.17875 C43.1099055,29.0675 43.0941454,28.7008333 43.0626254,28.62125 C43.1099055,28.6533333 43.3479649,28.7645833 43.5540895,28.87625 C43.4748746,28.74875 43.4429398,28.3825 43.4114198,28.31875 C43.5540895,28.3983333 43.8074942,28.4941667 43.8867091,28.5579167 C43.7917342,28.4304167 43.8867091,28.2075 43.823669,28.14375 C43.965924,28.1916667 44.2512635,28.0479167 44.5050829,28.1595833 C44.2989583,27.88875 43.9820988,27.7454167 43.9186439,27.41125 C43.7345004,26.4404167 44.0169367,25.2504167 44.520843,24.895 C45.4245563,24.2579167 45.5672261,22.85625 44.2512635,22.395 C43.4798515,22.1241667 42.4919464,22.7133333 42.8088059,23.86 C41.8893326,24.0191667 41.3904032,24.1308333 41.4376833,24.4333333 C41.4932581,24.4091667 41.580353,24.36125 41.6359279,24.3533333" id="Fill-13" fill="#000000"></path>
                <path d="M43.855189,27.9845833 C43.6440876,28.8329167 44.0136188,30.1183333 45.6306809,30.7233333 C47.2473283,31.32875 48.4521412,32.5708333 48.1033468,33.59 C48.3567515,33.4945833 48.9278453,32.7458333 48.5786362,32.125 C49.0862751,32.8575 48.5238908,34.0070833 47.8180073,34.45 C47.5646026,34.6091667 47.7864873,34.7366667 48.0083719,34.6570833 C47.8180073,34.7366667 47.6595775,34.94375 47.8337674,34.94375 C48.0083719,34.94375 48.4521412,34.7525 48.626331,34.5775 C48.4994213,34.705 48.1983218,34.8483333 48.3567515,34.99125 C48.5151813,35.1345833 48.7847608,34.9279167 49.0862751,34.6254167 C48.9278453,34.81625 48.6897859,35.11875 48.5151813,35.24625 C48.3409915,35.37375 48.3492863,35.7016667 48.642091,35.50125 C49.3873746,34.99125 50.2433931,34.2429167 50.4175829,33.3829167 C50.5797454,32.5833333 50.9248071,30.7233333 48.8959105,29.7679167 C46.8670139,28.8125 45.8840856,28.5258333 45.2818866,28.14375 C44.6792728,27.76125 44.0136188,27.3475 43.855189,27.9845833" id="Fill-14" fill="#B9C0B9"></path>
                <path d="M47.9129823,29.6883333 C47.469213,29.5770833 46.23288,29.17875 45.6937211,28.8445833 C45.1549769,28.51 44.5050829,28.5579167 44.5527778,29.0991667 C44.6000579,29.6408333 45.8206308,29.8158333 46.1059703,30.3570833 C46.3913098,30.89875 47.5646026,30.94625 47.9764371,31.01 C48.3886863,31.07375 49.7199942,30.5641667 47.9129823,29.6883333" id="Fill-15" fill="#FFFFFF"></path>
                <path d="M46.4074846,30.8033333 C46.8350791,31.07375 47.2630883,31.1854167 47.7545525,31.87 C48.1439911,32.4125 48.273804,33.0925 48.1033468,33.59 C48.3567515,33.4945833 48.9278453,32.7458333 48.5786362,32.125 C49.0862751,32.8575 48.5238908,34.0070833 47.8180073,34.45 C47.5646026,34.6091667 47.7864873,34.7366667 48.0083719,34.6570833 C47.8180073,34.7366667 47.6595775,34.94375 47.8337674,34.94375 C48.0083719,34.94375 48.4521412,34.7525 48.626331,34.5775 C48.4994213,34.705 48.1983218,34.8483333 48.3567515,34.99125 C48.5151813,35.1345833 48.7847608,34.9279167 49.0862751,34.6254167 C48.9278453,34.81625 48.6897859,35.11875 48.5151813,35.24625 C48.3409915,35.37375 48.3492863,35.7016667 48.642091,35.50125 C49.3873746,34.99125 50.2433931,34.2429167 50.4175829,33.3829167 C50.5797454,32.5833333 50.9563272,30.8033333 48.8959105,29.7679167 C48.5471161,29.5929167 47.5803627,29.3858333 47.358478,29.3383333 C47.8022473,29.5133333 48.3409915,30.2616667 48.4994213,30.4208333 C48.2140818,30.2616667 47.2630883,29.8 46.9939236,29.7520833 C47.2000482,29.9433333 47.4057581,30.0704167 47.5961227,30.46875 C47.2630883,30.29375 46.5497396,30.1820833 46.3597897,30.16625 C46.6131944,30.2616667 46.803559,30.5325 46.9304688,30.6758333 C46.6131944,30.46875 46.0047743,30.54875 46.4074846,30.8033333" id="Fill-16" fill="#E05634"></path>
                <path d="M42.9593557,24.2979167 C42.6346161,24.5129167 42.3571566,24.895 42.5554012,25.1975 C42.7532311,25.5 43.2820216,25.1904167 43.3637249,24.9745833 C43.5383295,24.5129167 42.9518904,24.5208333 42.9593557,24.2979167" id="Fill-17" fill="#E05634"></path>
                <path d="M43.4906346,25.1020833 C42.4919464,26.2645833 42.1120467,27.6658333 42.0796971,28.57375 C42.0639371,29.0195833 42.2700617,29.2741667 42.4600116,29.4654167 C42.4919464,29.3541667 42.4442515,29.0354167 42.3969715,28.9241667 C42.4761863,29.00375 42.6665509,29.0675 42.7453511,29.1470833 C42.729591,29.0354167 42.6188561,28.7329167 42.5869213,28.685 C42.6503762,28.7645833 42.8643808,28.6770833 42.8963156,28.725 C42.8643808,28.6291667 42.7930459,28.4620833 42.7615258,28.4145833 C42.8088059,28.44625 43.1737751,28.4704167 43.2372299,28.5020833 C43.1895351,28.40625 43.0149306,28.1358333 43.0149306,28.1358333 C43.0626254,28.1516667 43.395245,28.1754167 43.4906346,28.2075 C43.3002701,28.01625 42.7772859,27.45875 43.5856096,25.3566667 C43.7237172,24.9979167 43.7108603,24.8454167 43.4906346,25.1020833" id="Fill-18" fill="#B9C0B9"></path>
                <path d="M44.2197434,30.2141667 C43.9820988,30.7395833 44.1247685,31.3925 44.2512635,31.5991667 C44.1562886,31.3604167 44.9173322,31.15375 45.4560764,31.63125 C45.2341917,31.32875 44.2831983,30.6120833 44.2197434,30.2141667" id="Fill-19" fill="#B9C0B9"></path>
                <path d="M43.4581161,23.465 C43.1571161,23.465 43.1521161,23.925 43.4581161,23.925 C43.7636161,23.925 43.7636161,23.465 43.4581161,23.465" id="Fill-20" fill="#FFFFFF"></path>
                <path d="M44.3308931,23.1270833 C44.4731481,23.66875 44.2355035,23.9395833 43.950164,24.035 C43.6200328,24.1454167 43.6432581,24.5970833 44.1090085,24.5129167 C44.9015721,24.3695833 44.9488522,23.6366667 44.5527778,22.9841667 C44.452826,22.8195833 44.2649498,22.8766667 44.3308931,23.1270833" id="Fill-21" fill="#B9C0B9"></path>
            </g>
        </g>
    </g>
</svg>