<?xml version="1.0" encoding="UTF-8"?>
<svg width="96px" height="60px" viewBox="0 0 96 60" version="1.1" xmlns="http://www.w3.org/2000/svg" xmlns:xlink="http://www.w3.org/1999/xlink">
    <!-- Generator: Sketch 43.2 (39069) - http://www.bohemiancoding.com/sketch -->
    <title>Mozambique</title>
    <desc>Created with Sketch.</desc>
    <defs></defs>
    <g id="Graphic-design" stroke="none" stroke-width="1" fill="none" fill-rule="evenodd">
        <g id="Home" transform="translate(-962.000000, -825.000000)">
            <g id="Mozambique" transform="translate(962.000000, 825.000000)">
                <polygon id="Fill-1" fill="#FFFFFF" points="0.112551724 21.4870345 95.474069 21.4870345 95.474069 17.2307586 0.112551724 17.2307586"></polygon>
                <polygon id="Fill-3" fill="#FFFFFF" points="0.112551724 42.7675862 95.474069 42.7675862 95.474069 38.5113103 0.112551724 38.5113103"></polygon>
                <polygon id="Fill-5" fill="#00746B" points="0 17 95 17 95 0 0 0"></polygon>
                <polygon id="Fill-7" fill="#000000" points="0 38 95 38 95 21 0 21"></polygon>
                <polygon id="Fill-9" fill="#FFF101" points="0 60 95 60 95 43 0 43"></polygon>
                <polyline id="Fill-11" fill="#D82331" points="42.7353103 30 0.112551724 0.206068966 0.112551724 59.793931 42.7353103 30"></polyline>
                <polyline id="Fill-13" fill="#FFF101" points="15.8135172 19.2790345 13.2273103 27.3148966 4.72262069 27.3148966 11.6296552 32.3155862 8.976 40.3444138 15.8135172 35.3553103 22.6510345 40.3444138 20.0329655 32.2477241 26.9044138 27.3484138 18.4332414 27.3484138 15.8135172 19.2790345"></polyline>
                <polygon id="Stroke-14" stroke="#000000" stroke-width="0.125" points="15.8135172 19.2790345 13.2273103 27.3148966 4.72262069 27.3148966 11.6296552 32.3155862 8.976 40.3444138 15.8135172 35.3553103 22.6510345 40.3444138 20.0329655 32.2477241 26.9044138 27.3484138 18.4332414 27.3484138"></polygon>
                <path d="M15.8453793,28.5587586 C14.517931,28.2657931 13.1606897,28.2289655 11.6975172,28.778069 L11.1525517,29.3635862 L9.49903448,34.7081379 L14.7682759,34.7081379 C14.9317241,35.0193103 15.4791724,35.184 15.8453793,35.184 C16.2115862,35.184 16.7681379,35.0193103 16.9315862,34.7081379 L22.2008276,34.7081379 L20.5464828,29.3635862 L20.001931,28.778069 C18.5383448,28.2289655 17.1728276,28.2657931 15.8453793,28.5587586" id="Fill-15" fill="#FFFFFF"></path>
                <path d="M15.8453793,28.5587586 C14.517931,28.2657931 13.1606897,28.2289655 11.6975172,28.778069 L11.1525517,29.3635862 L9.49903448,34.7081379 L14.7682759,34.7081379 C14.9317241,35.0193103 15.4791724,35.184 15.8453793,35.184 C16.2115862,35.184 16.7681379,35.0193103 16.9315862,34.7081379 L22.2008276,34.7081379 L20.5464828,29.3635862 L20.001931,28.778069 C18.5383448,28.2289655 17.1728276,28.2657931 15.8453793,28.5587586 Z M15.8453793,34.0216552 C16.6874483,33.4907586 19.4615172,33.1402759 21.0537931,33.5793103 L15.8453793,34.0216552 Z M15.8453793,34.0216552 C16.2206897,34.0307586 16.7478621,34.3783448 16.9315862,34.7081379 L15.8453793,34.0216552 Z M21.0537931,33.5793103 C21.1270345,33.8354483 21.7431724,34.5616552 22.2008276,34.7081379 L21.0537931,33.5793103 Z M21.0537931,33.5793103 L20.001931,28.778069 L21.0537931,33.5793103 Z M15.8453793,34.0216552 C15.0033103,33.4907586 12.2383448,33.1402759 10.646069,33.5793103 L15.8453793,34.0216552 Z M15.8453793,34.0216552 C15.470069,34.0307586 14.952,34.3783448 14.7682759,34.7081379 L15.8453793,34.0216552 Z M10.646069,33.5793103 C10.5728276,33.8354483 9.95668966,34.5616552 9.49903448,34.7081379 L10.646069,33.5793103 Z M10.646069,33.5793103 L11.6975172,28.778069 L10.646069,33.5793103 Z M15.8453793,34.0216552 L15.8453793,28.5587586 L15.8453793,34.0216552 Z" id="Stroke-16" stroke="#000000" stroke-width="0.125"></path>
                <path d="M18.777931,27.0086897 L18.2937931,26.4744828 L17.4347586,27.254069 C17.5034483,27.4808276 17.2017931,27.7009655 16.917931,27.9583448 C16.6344828,28.2153103 15.0537931,29.6491034 15.0537931,29.6491034 C14.7926897,29.3615172 14.5257931,29.0337931 14.5555862,28.9154483 L14.4095172,29.0478621 C14.3797241,29.1657931 14.5125517,29.3457931 14.7736552,29.6333793 L14.0292414,30.3086897 C14.6222069,30.8958621 15.849931,31.3063448 17.1256552,31.3046897 L17.066069,32.529931 C15.288,32.5307586 13.9675862,31.98 13.1201379,31.1292414 L12.8888276,31.3394483 C12.828,31.4822069 13.1213793,31.7511724 13.2806897,31.9266207 L12.3587586,32.7624828 C12.3711724,33.0024828 12.4915862,33.3811034 12.6674483,33.7903448 C12.8251034,34.1565517 12.8027586,34.1991724 12.5317241,34.4453793 C12.2606897,34.6911724 12.1742069,34.5873103 12.0521379,34.310069 C11.966069,34.1147586 11.9031724,33.9364138 11.8646897,33.5755862 C11.8266207,33.2147586 11.4095172,33.2246897 11.2804138,32.9731034 L11.9809655,32.3337931 L12.4543448,32.3565517 L12.938069,31.917931 L12.6281379,31.5761379 L12.2482759,31.92 C12.324,32.0035862 12.4518621,32.1612414 12.5482759,32.150069 C12.3707586,32.1889655 12.1895172,32.1107586 12.1212414,32.0354483 L10.8198621,33.216 C10.8550345,33.2751724 10.6713103,33.5251034 10.5355862,33.6943448 C10.0642759,34.2798621 9.00413793,35.6685517 8.17531034,36.6405517 C8.05448276,36.7824828 7.95889655,36.7233103 7.88068966,36.633931 C7.56,36.2677241 7.19089655,35.9027586 6.82137931,35.474069 C6.744,35.3846897 6.68027586,35.2601379 6.74689655,35.1993103 C7.71641379,34.2902069 7.99075862,34.0485517 8.31434483,33.7932414 C8.61475862,33.5557241 8.77448276,33.5126897 9.21806897,33.4067586 C9.79531034,32.8526897 9.87062069,32.7848276 10.2132414,32.4587586 C10.2550345,32.4128276 10.3663448,32.4182069 10.3969655,32.4438621 L12.3405517,30.6811034 L12.5391724,30.8582069 L12.8308966,30.4415172 L14.1777931,29.22 L14.0718621,29.1028966 L12.6248276,30.4158621 L12.3422069,30.2387586 L12.2048276,30.3633103 L12.3802759,30.4398621 L10.4557241,32.1856552 C10.3762759,32.2572414 10.3489655,32.0846897 10.3572414,31.9096552 C10.365931,31.7346207 10.3862069,31.4884138 10.3816552,31.4085517 C10.4635862,31.4524138 10.5604138,31.3907586 10.6742069,31.2993103 L13.7424828,28.7482759 C13.7288276,28.6998621 13.7362759,28.6324138 13.8277241,28.5492414 C13.9195862,28.4656552 14.7248276,27.7357241 14.7997241,27.6678621 C14.7537931,27.7092414 14.7537931,27.9525517 14.9582069,28.1776552 C15.1096552,28.3444138 15.3095172,28.452 15.3868966,28.382069 L16.886069,27.021931 L16.8012414,26.9242759 L15.3873103,28.2066207 C15.3376552,28.2438621 15.1729655,28.1884138 15.0595862,28.0630345 C14.9685517,27.9628966 14.9106207,27.8404138 14.9689655,27.7874483 L16.5707586,26.3350345 C16.5111724,26.412 16.6737931,26.5911724 16.8628966,26.7997241 L16.929931,26.7393103 C16.7689655,26.5617931 16.6849655,26.4442759 16.7433103,26.3913103 L17.9573793,25.3663448 L18.6649655,25.4006897 L19.6406897,24.5234483 C19.6315862,24.3794483 19.610069,24.1713103 19.6154483,24.0595862 C19.6233103,23.9006897 19.6551724,23.7347586 19.7991724,23.8932414 C19.9427586,24.0517241 20.0788966,24.201931 20.0788966,24.201931 L20.145931,24.1415172 L20.3044138,24.3165517 C20.3044138,24.3165517 20.5212414,24.12 20.6383448,24.014069 C20.7091034,23.9495172 20.9594483,24.2217931 20.889931,24.2875862 C20.7918621,24.3802759 20.7293793,24.4328276 20.7293793,24.4328276 L20.8655172,24.5830345 L24.5524138,21.8929655 C24.7671724,21.744 24.9935172,21.6753103 24.6583448,22.0096552 L21.2867586,25.0982069 C21.1108966,25.2728276 21.0815172,25.2235862 20.9217931,25.0642759 L18.777931,27.0086897" id="Fill-17" fill="#000000"></path>
                <path d="M12.828,25.4718621 C12.9314483,25.5757241 13.130069,25.6390345 13.4491034,25.4718621 C14.5957241,26.7537931 17.0958621,29.5886897 22.9568276,36.2933793 C23.1558621,36.5325517 23.6296552,36.0666207 23.4223448,35.8278621 C17.5617931,29.1231724 15.0612414,26.2882759 13.9146207,25.0063448 C14.0023448,24.9024828 14.054069,24.6595862 13.9746207,24.5325517 C13.7594483,24.2855172 13.5442759,24.0467586 13.3133793,23.7997241 C13.0597241,23.5282759 13.0588966,23.385931 12.7001379,23.2742069 C12.3728276,23.1724138 12.1746207,23.2982069 12.0235862,23.4256552 C11.8721379,23.5526897 11.7546207,23.8001379 11.7446897,23.8953103 C11.7289655,24.0467586 11.6569655,24.0943448 11.5696552,24.182069 C11.4144828,24.3372414 11.2828966,24.2693793 10.8848276,24.158069 C10.4867586,24.0467586 10.4234483,23.9197241 9.91324138,24.6517241 C8.92593103,26.0689655 8.47986207,26.7062069 7.50827586,28.092 L9.08524138,29.8754483 C10.4068966,28.1395862 10.8691034,27.5184828 11.9677241,26.0851034 C12.1142069,25.893931 12.1348966,25.7110345 12.1348966,25.5513103 C12.1348966,25.4478621 12.1270345,25.2571034 12.1270345,25.1457931 C12.1270345,24.9546207 12.0951724,24.8590345 12.1907586,24.7473103 C12.4692414,24.7315862 12.9074483,24.5325517 12.9471724,24.2615172 C12.9711724,24.5242759 12.6128276,24.8590345 12.2304828,24.8428966 C12.4137931,25.010069 12.6645517,25.3088276 12.828,25.4718621" id="Fill-18" fill="#000000"></path>
            </g>
        </g>
    </g>
</svg>