<?xml version="1.0" encoding="UTF-8"?>
<svg width="114px" height="105px" viewBox="0 0 114 105" version="1.1" xmlns="http://www.w3.org/2000/svg" xmlns:xlink="http://www.w3.org/1999/xlink">
    <!-- Generator: Sketch 43.2 (39069) - http://www.bohemiancoding.com/sketch -->
    <title>Shape</title>
    <desc>Created with Sketch.</desc>
    <defs></defs>
    <g id="Graphic-design" stroke="none" stroke-width="1" fill="none" fill-rule="evenodd">
        <g id="Recent-story" transform="translate(-264.000000, -930.000000)" fill-rule="nonzero" fill="#FFFFFF">
            <g id="News-story-image" transform="translate(143.000000, 915.000000)">
                <g id="noun_697586" transform="translate(121.000000, 15.000000)">
                    <path d="M90.8292683,0 C92.3248872,0.0482432432 93.6327974,1.55953378 93.6676829,2.83783784 L93.6676829,28.3783784 L110.698171,28.3783784 C112.233611,28.4138514 113.5017,29.9379122 113.536585,31.2162162 L113.536585,92.2297581 C113.536585,99.2553932 107.790795,105.000028 100.76372,105.000028 L12.7728659,105.000028 C5.74578997,105.000028 -7.09602318e-07,99.2553932 -7.09602318e-07,92.2297581 L-7.09602318e-07,2.83783784 C0.000141920733,1.35194595 1.35226331,0.000141891892 2.83841463,1.61312405e-13 L90.8292683,1.61312405e-13 L90.8292683,0 Z M87.9908537,5.67567568 L5.67682927,5.67567568 L5.67682927,92.2297581 C5.67682927,96.2092581 8.79256979,99.3243527 12.7728659,99.3243527 L90.4744665,99.3243527 C89.0387552,97.2596838 87.9908537,94.9214473 87.9908537,92.2297581 L87.9908537,5.67567568 L87.9908537,5.67567568 Z M76.6371951,14.1891892 C78.1397951,14.1891892 79.4407242,15.748723 79.4756098,17.027027 L79.4756098,36.8918919 C79.4754664,38.3777838 78.1233464,39.7295878 76.6371951,39.7297297 L48.2530488,39.7297297 C46.7668989,39.7295878 45.4147775,38.3777838 45.4146341,36.8918919 L45.4146341,17.027027 C45.4147775,15.5411351 46.7668989,14.1893311 48.2530488,14.1891892 L76.6371951,14.1891892 Z M34.0609756,17.027027 C35.628588,17.027027 36.8993902,18.297527 36.8993902,19.8648649 C36.8993902,21.4322027 35.628588,22.7027027 34.0609756,22.7027027 L17.0304878,22.7027027 C15.4628754,22.7027027 14.1920732,21.4322027 14.1920732,19.8648649 C14.1920732,18.297527 15.4628754,17.027027 17.0304878,17.027027 L34.0609756,17.027027 Z M73.7987805,19.8648649 L51.0914634,19.8648649 L51.0914634,34.0540541 L73.7987805,34.0540541 L73.7987805,19.8648649 Z M34.0609756,31.2162162 C35.628588,31.2162162 36.8993902,32.4867162 36.8993902,34.0540541 C36.8993902,35.6213919 35.628588,36.8918919 34.0609756,36.8918919 L17.0304878,36.8918919 C15.4628754,36.8918919 14.1920732,35.6213919 14.1920732,34.0540541 C14.1920732,32.4867162 15.4628754,31.2162162 17.0304878,31.2162162 L34.0609756,31.2162162 Z M107.859756,34.0540541 L93.6676829,34.0540541 L93.6676829,92.2297581 C93.6676829,96.2092581 96.7834263,99.3243527 100.76372,99.3243527 C104.744016,99.3243527 107.859756,96.2092581 107.859756,92.2297581 L107.859756,34.0540541 L107.859756,34.0540541 Z M76.6371951,48.2432432 C78.2048089,48.2432432 79.4756098,49.5137716 79.4756098,51.0811095 C79.4756098,52.6484473 78.2048089,53.9189473 76.6371951,53.9189473 L17.0304878,53.9189473 C15.4628754,53.9189473 14.1920732,52.6484473 14.1920732,51.0811095 C14.1920732,49.5137716 15.4628754,48.2432432 17.0304878,48.2432432 L76.6371951,48.2432432 Z M76.6371951,63.8513797 C78.2048089,63.8513797 79.4756098,65.1218797 79.4756098,66.6892176 C79.4756098,68.2565554 78.2048089,69.5270554 76.6371951,69.5270554 L17.0304878,69.5270554 C15.4628754,69.5270554 14.1920732,68.2565554 14.1920732,66.6892176 C14.1920732,65.1218797 15.4628754,63.8513797 17.0304878,63.8513797 L76.6371951,63.8513797 Z M76.6371951,79.4594878 C78.2048089,79.4594878 79.4756098,80.7299878 79.4756098,82.2973257 C79.4756098,83.8646635 78.2048089,85.1351635 76.6371951,85.1351635 L17.0304878,85.1351635 C15.4628754,85.1351635 14.1920732,83.8646635 14.1920732,82.2973257 C14.1920732,80.7299878 15.4628754,79.4594878 17.0304878,79.4594878 L76.6371951,79.4594878 L76.6371951,79.4594878 Z" id="Shape"></path>
                </g>
            </g>
        </g>
    </g>
</svg>