<?xml version="1.0" encoding="UTF-8"?>
<svg width="271px" height="271px" viewBox="0 0 271 271" version="1.1" xmlns="http://www.w3.org/2000/svg" xmlns:xlink="http://www.w3.org/1999/xlink">
    <!-- Generator: Sketch 43.2 (39069) - http://www.bohemiancoding.com/sketch -->
    <title>Group 11</title>
    <desc>Created with Sketch.</desc>
    <defs>
        <rect id="path-1" x="0" y="0" width="255" height="255" rx="127.5"></rect>
        <filter x="-4.7%" y="-4.7%" width="109.4%" height="109.4%" filterUnits="objectBoundingBox" id="filter-2">
            <feMorphology radius="1.5" operator="dilate" in="SourceAlpha" result="shadowSpreadOuter1"></feMorphology>
            <feOffset dx="0" dy="0" in="shadowSpreadOuter1" result="shadowOffsetOuter1"></feOffset>
            <feGaussianBlur stdDeviation="2.5" in="shadowOffsetOuter1" result="shadowBlurOuter1"></feGaussianBlur>
            <feColorMatrix values="0 0 0 0 0   0 0 0 0 0   0 0 0 0 0  0 0 0 0.02 0" type="matrix" in="shadowBlurOuter1"></feColorMatrix>
        </filter>
    </defs>
    <g id="Graphic-design" stroke="none" stroke-width="1" fill="none" fill-rule="evenodd">
        <g id="Home" transform="translate(-934.000000, -1763.000000)">
            <g id="Group-11" transform="translate(942.000000, 1771.000000)">
                <g id="Rectangle">
                    <use fill="black" fill-opacity="1" filter="url(#filter-2)" xlink:href="#path-1"></use>
                    <use fill="#FFFFFF" fill-rule="evenodd" xlink:href="#path-1"></use>
                </g>
                <g id="noun_670322" transform="translate(56.000000, 63.000000)">
                    <path d="M118.466705,117.755331 L118.466705,117.755331 C105.835821,130.347889 85.3689395,130.347889 72.7380552,117.755331 L54.3433372,99.4443771 C53.6675463,98.7521417 53.5379339,97.6949298 54.0265646,96.8605523 C54.5151952,96.0261749 55.5018732,95.6198762 56.4380043,95.8675589 C60.7555421,97.0658371 65.2382277,97.5628409 69.7140639,97.3395006 C71.115779,97.2771183 72.4779862,97.8122656 73.4608629,98.8114422 L82.6065928,107.863883 C89.7487967,114.985633 101.323203,114.985633 108.465407,107.863883 L108.465407,107.863883 C111.896518,104.443244 113.824356,99.8020104 113.824356,94.9623148 C113.824356,90.1226192 111.896518,85.4813855 108.465407,82.0607464 L88.5070638,62.1012177 C85.0790437,58.6774944 80.4277953,56.7538072 75.5776569,56.7538072 C70.7275184,56.7538072 66.07627,58.6774944 62.64825,62.1012177 C62.0845941,62.6157737 61.2204969,62.6157737 60.656841,62.1012177 L52.7207076,54.1674523 C52.2050414,53.60501 52.2050414,52.7427734 52.7207076,52.1803311 C65.3515919,39.587773 85.818473,39.587773 98.4493573,52.1803311 L118.466705,72.1251403 C131.086435,84.7288289 131.086435,105.151643 118.466705,117.755331 Z M118.599465,33.5308305 L130.3119,24.2281594 C132.42299,22.3522044 132.697223,19.1571846 130.936566,16.9503415 C129.175909,14.7434984 125.994004,14.2939837 123.688622,15.9264085 L111.976187,25.2290797 C109.865097,27.1050347 109.590864,30.3000544 111.351521,32.5068975 C113.112178,34.7137406 116.294083,35.1632554 118.599465,33.5308305 Z M135.238793,39.7424242 L120.487616,42.5096745 C118.443859,42.6533441 116.663948,43.9542602 115.910165,45.8552785 C115.156382,47.7562968 115.562422,49.9202474 116.954389,51.4203734 C118.346355,52.9204994 120.477366,53.4907342 122.434772,52.8868631 L137.185949,50.1196128 C139.229706,49.9759432 141.009617,48.6750271 141.7634,46.7740088 C142.517183,44.8729905 142.111143,42.70904 140.719176,41.208914 C139.32721,39.708788 137.196199,39.1385531 135.238793,39.7424242 Z M106.931284,0.706531987 L106.931284,0.706531987 C104.238701,-0.465590994 101.103475,0.759454129 99.924475,3.44434343 L93.935497,17.1334007 C92.8968383,19.7899886 94.1448032,22.7910302 96.7632287,23.9333836 C99.3816541,25.0757371 102.436897,23.9520774 103.686025,21.387312 L109.675003,7.69825477 C110.849655,5.0114687 109.621967,1.88299325 106.931284,0.706531987 L106.931284,0.706531987 Z M6.37250859,89.78844 L21.1236859,87.0211897 C23.1674426,86.8775201 24.9473543,85.576604 25.701137,83.6755857 C26.4549196,81.7745674 26.0488802,79.6106168 24.6569134,78.1104908 C23.2649467,76.6103648 21.1339358,76.0401299 19.1765305,76.6440011 L4.42535319,79.4112514 C1.54481426,79.9611608 -0.347920957,82.7316341 0.191765305,85.6081257 L0.191765305,85.6081257 C0.763963575,88.4508635 3.5143331,90.3110619 6.37250859,89.78844 L6.37250859,89.78844 Z M34.6800178,128.824332 L34.6800178,128.824332 C37.3726013,129.996455 40.5078273,128.77141 41.686827,126.086521 L47.675805,112.397464 C48.7144637,109.740876 47.4664988,106.739834 44.8480734,105.597481 C42.2296479,104.455127 39.174405,105.578787 37.9252768,108.143552 L31.9362988,121.832609 C30.7616467,124.519396 31.9893352,127.647871 34.6800178,128.824332 Z M23.2773578,95.6762065 L11.5796742,105.023036 C9.37939033,106.876603 9.05431741,110.139716 10.8458493,112.38924 C12.6373812,114.638764 15.8964627,115.059717 18.2029528,113.339506 L29.9153876,104.036835 C32.229093,102.20774 32.6187483,98.8533759 30.785707,96.5446521 C28.9526657,94.2359283 25.5910632,93.8471119 23.2773578,95.6762065 L23.2773578,95.6762065 Z" id="Shape" fill="#FCC445" fill-rule="nonzero"></path>
                    <path d="M34.5177549,23.0947643 C41.6599588,15.9730142 53.2343648,15.9730142 60.3765687,23.0947643 L69.5370498,32.2355219 C70.5199265,33.2346985 71.8821337,33.7698458 73.2838488,33.7074635 C77.759685,33.4841232 82.2423706,33.981127 86.5599084,35.1794052 C87.4960395,35.4270878 88.4827175,35.0207892 88.9713481,34.1864118 C89.4599788,33.3520343 89.3303664,32.2948224 88.6545755,31.602587 L70.3188622,13.2474747 C57.6879779,0.654916678 37.2210968,0.654916678 24.5902125,13.2474747 L24.5902125,13.2474747 C11.9704828,25.8511633 11.9704828,46.273977 24.5902125,58.8776655 L44.5780578,78.7930359 C57.2089421,91.385594 77.6758231,91.385594 90.3067074,78.7930359 L90.3067074,78.7930359 C90.8223737,78.2305936 90.8223737,77.368357 90.3067074,76.8059147 L82.3558228,68.8721493 C81.7921669,68.3575933 80.9280698,68.3575933 80.3644139,68.8721493 L80.3644139,68.8721493 C76.9363939,72.2958726 72.2851455,74.2195598 67.435007,74.2195598 C62.5848685,74.2195598 57.9336201,72.2958726 54.5056001,68.8721493 L34.5177549,48.8979012 C31.086644,45.4772621 29.158806,40.8360284 29.158806,35.9963328 C29.158806,31.1566372 31.086644,26.5154034 34.5177549,23.0947643 L34.5177549,23.0947643 Z" id="Path" fill="#1696A1"></path>
                </g>
            </g>
        </g>
    </g>
</svg>