<?xml version="1.0" encoding="UTF-8"?>
<svg width="271px" height="271px" viewBox="0 0 271 271" version="1.1" xmlns="http://www.w3.org/2000/svg" xmlns:xlink="http://www.w3.org/1999/xlink">
    <!-- Generator: Sketch 43.2 (39069) - http://www.bohemiancoding.com/sketch -->
    <title>Group 10</title>
    <desc>Created with Sketch.</desc>
    <defs>
        <rect id="path-1" x="0" y="0" width="255" height="255" rx="127.5"></rect>
        <filter x="-4.7%" y="-4.7%" width="109.4%" height="109.4%" filterUnits="objectBoundingBox" id="filter-2">
            <feMorphology radius="1.5" operator="dilate" in="SourceAlpha" result="shadowSpreadOuter1"></feMorphology>
            <feOffset dx="0" dy="0" in="shadowSpreadOuter1" result="shadowOffsetOuter1"></feOffset>
            <feGaussianBlur stdDeviation="2.5" in="shadowOffsetOuter1" result="shadowBlurOuter1"></feGaussianBlur>
            <feColorMatrix values="0 0 0 0 0   0 0 0 0 0   0 0 0 0 0  0 0 0 0.03 0" type="matrix" in="shadowBlurOuter1"></feColorMatrix>
        </filter>
    </defs>
    <g id="Graphic-design" stroke="none" stroke-width="1" fill="none" fill-rule="evenodd">
        <g id="Home" transform="translate(-234.000000, -1387.000000)">
            <g id="Group-10" transform="translate(242.000000, 1395.000000)">
                <g id="Rectangle">
                    <use fill="black" fill-opacity="1" filter="url(#filter-2)" xlink:href="#path-1"></use>
                    <use fill="#FFFFFF" fill-rule="evenodd" xlink:href="#path-1"></use>
                </g>
                <g id="noun_30176" transform="translate(63.000000, 55.000000)" fill-rule="nonzero">
                    <path d="M65.7868613,20.9452777 C64.1452038,20.9452777 62.8149991,19.6238881 62.8149991,17.9955694 L62.8210272,3.24702838 C62.8210272,1.61870972 64.1512319,0.299313212 65.7948988,0.299313212 C67.4345469,0.299313212 68.766761,1.62070277 68.766761,3.24902142 L68.7607328,17.9955694 C68.7607328,19.6258811 67.4305281,20.9452777 65.7868613,20.9452777" id="Shape" stroke="#FCC445" stroke-width="3" fill="#FCC445"></path>
                    <path d="M92.5376397,29.7983884 C91.9127248,29.7983884 91.2958474,29.6030699 90.7593449,29.2084467 C89.439187,28.2318542 89.1779686,26.3843004 90.1645705,25.0808483 L99.0881946,13.2860015 C100.070778,11.9825494 101.939494,11.7214603 103.251615,12.6960599 C104.563735,13.6746455 104.826963,15.5241923 103.84438,16.8236583 L94.9167369,28.616512 C94.3380376,29.3938 93.4418574,29.7983884 92.5376397,29.7983884" id="Shape" stroke="#FCC445" stroke-width="3" fill="#FCC445"></path>
                    <path d="M36.0541739,29.780451 C35.1479468,29.780451 34.2618134,29.3738696 33.6730672,28.5985746 L24.7574807,16.7997418 C23.7728881,15.4982827 24.0401346,13.6487359 25.3582831,12.6721433 C26.6643754,11.6975438 28.5270638,11.9586328 29.5136658,13.264078 L38.4292524,25.0649039 C39.413845,26.366363 39.144589,28.2159098 37.834478,29.1905093 C37.3040037,29.5851324 36.67507,29.780451 36.0541739,29.780451" id="Shape" stroke="#FCC445" stroke-width="3" fill="#FCC445"></path>
                    <path d="M15.2290355,50.4144571 C14.7849641,50.4144571 14.3308459,50.3148048 13.9068683,50.1035419 L2.01540079,44.2021325 C0.546549367,43.4706846 -0.0482249441,41.7008596 0.687205454,40.2439429 C1.42464522,38.7890193 3.20695878,38.2030637 4.67581021,38.9245464 L16.5692871,44.8259559 C18.0381385,45.5574038 18.628894,47.3272287 17.8974824,48.7861385 C17.3730361,49.8185363 16.3241436,50.4144571 15.2290355,50.4144571" id="Shape" stroke="#FCC445" stroke-width="3" fill="#FCC445"></path>
                    <path d="M113.346703,50.4483389 C112.253604,50.4483389 111.21074,49.8504251 110.686294,48.8200203 C109.950863,47.3611105 110.549656,45.5912856 112.018508,44.8598377 L123.913994,38.9664004 C125.382845,38.2429247 127.167168,38.8288802 127.906617,40.2877899 C128.63602,41.7427136 128.045264,43.5145316 126.572394,44.2439864 L114.678917,50.1374237 C114.242883,50.3506797 113.792784,50.4483389 113.346703,50.4483389" id="Shape" stroke="#FCC445" stroke-width="3" fill="#FCC445"></path>
                    <path d="M86.5577466,144.494205 L33.0401148,144.476267 C31.466776,144.474274 30.1908244,143.20869 30.1908244,141.648135 L30.2068994,97.5061501 C24.3696718,89.8090061 21.2933222,80.6888272 21.297341,71.0584285 C21.3053784,46.733301 41.2644772,26.9523186 65.7868613,26.9622838 C90.3112547,26.970256 110.254279,46.7671828 110.246241,71.0923103 L110.244232,73.5118683 C119.157809,96.3501834 119.155799,97.0019095 119.155799,97.6356981 C119.15379,100.820586 116.541606,103.411546 113.330628,103.409553 L107.262323,103.40756 L107.260313,109.426559 C107.256294,119.782426 99.4780129,125.544323 89.4150745,126.921517 L89.4110558,141.672051 C89.4090464,143.230614 88.1310854,144.496198 86.5577466,144.494205 Z M35.8914147,138.823989 L83.7104655,138.839933 L83.7124749,124.282724 C83.7144843,122.722169 84.9904359,121.456585 86.5657841,121.456585 C94.8283245,121.458578 101.553695,117.617978 101.557714,109.422573 L101.561732,100.577434 C101.561732,99.014886 102.837684,97.7493017 104.413032,97.7493017 L113.330628,97.7532878 C113.348712,97.7532878 113.362778,97.7493017 113.374834,97.7433226 C112.444495,94.9590372 107.714431,82.6858594 104.734532,75.058472 C104.609951,74.7316125 104.541632,74.3848224 104.541632,74.0340463 L104.543641,71.0863312 C104.54967,49.8803208 87.1645771,32.6225347 65.7828425,32.6145625 C44.4031173,32.6065903 27.0039593,49.8524181 26.9979312,71.0604216 C26.9939125,79.7381442 29.865306,87.945508 35.2986497,94.7976005 C35.6924868,95.295862 35.9074897,95.9117133 35.9074897,96.547495 L35.8914147,138.823989 Z" id="Shape" stroke="#FCC445" stroke-width="5" fill="#FCC445"></path>
                    <path d="M65.7446645,52.4274337 C57.1787088,52.4234476 50.2142231,59.3313453 50.2102043,67.8257078 C50.208195,76.3180771 57.1706713,83.229961 65.7346176,83.231954 C74.2985639,83.2359401 81.2670684,76.3300354 81.2710871,67.837666 C81.2710871,59.3433036 74.3066014,52.4294267 65.7446645,52.4274337 M65.7305989,90.3012885 C53.2363196,90.2973024 43.0789407,80.2124892 43.0829595,67.8237147 C43.0869782,55.4309541 53.2523946,45.3541131 65.7466738,45.3600922 C78.2409531,45.3640783 88.398332,55.4488915 88.3943132,67.8396591 C88.3882851,80.2284336 78.2248781,90.3072676 65.7305989,90.3012885" id="Shape" stroke="#1696A1" fill="#1696A1"></path>
                    <path d="M65.7406457,63.8794765 C63.5444014,63.8794765 61.7580691,65.6512945 61.7580691,67.8277008 C61.7560597,70.0061002 63.542392,71.7799112 65.736627,71.7799112 C67.9348807,71.7799112 69.7192036,70.0080932 69.7192036,67.8296939 C69.7192036,65.6532875 67.93689,63.8794765 65.7406457,63.8794765 M65.7346176,78.8492457 C59.6080403,78.8472526 54.6288148,73.9025053 54.6308242,67.8257078 C54.6328336,61.7509033 59.6160778,56.810142 65.7426551,56.8121351 C71.867223,56.8141281 76.8484578,61.7588755 76.8464485,67.8336799 C76.8424297,73.9084844 71.8591855,78.8512387 65.7346176,78.8492457" id="Shape" stroke="#FCC445" fill="#FCC445"></path>
                </g>
            </g>
        </g>
    </g>
</svg>